<svg xmlns="http://www.w3.org/2000/svg" version="1.1" xmlns:xlink="http://www.w3.org/1999/xlink" xmlns:svgjs="http://svgjs.com/svgjs" width="512" height="512" x="0" y="0" viewBox="0 0 64 64" style="enable-background:new 0 0 512 512" xml:space="preserve" class=""><g><g id="_20-Sprout" data-name="20-Sprout"><path d="m28 7h-4a6 6 0 0 1 -6-6h4a6 6 0 0 1 5.91 5.01 5.361 5.361 0 0 1 .09.99z" fill="#6DE470" data-original="#d2eb5a" class=""></path><path d="m27.648 5h-3.648a6 6 0 0 1 -5.65-4h-.35a6 6 0 0 0 6 6h4a5.361 5.361 0 0 0 -.09-.99 5.966 5.966 0 0 0 -.262-1.01z" fill="#4DCC68" data-original="#c3dc4b" class=""></path><path d="m36 7a5.361 5.361 0 0 1 .09-.99 6 6 0 0 1 5.91-5.01h4a6 6 0 0 1 -6 6z" fill="#6DE470" data-original="#d2eb5a" class=""></path><path d="m40 5h-3.648a5.966 5.966 0 0 0 -.262 1.01 5.361 5.361 0 0 0 -.09.99h4a6 6 0 0 0 6-6h-.35a6 6 0 0 1 -5.65 4z" fill="#4DCC68" data-original="#c3dc4b" class=""></path><path d="m27 20h-8a8 8 0 0 1 -8-8h8a8 8 0 0 1 7.94 7.01 8.1 8.1 0 0 1 .06.99z" fill="#6DE470" data-original="#b4d241" class=""></path><path d="m26.74 18h-5.74a7.994 7.994 0 0 1 -7.738-6h-2.262a8 8 0 0 0 8 8h8a7.495 7.495 0 0 0 -.26-2z" fill="#4DCC68" data-original="#a0be28" class=""></path><path d="m37 20a8.1 8.1 0 0 1 .06-.99 8 8 0 0 1 7.94-7.01h8a8 8 0 0 1 -8 8z" fill="#6DE470" data-original="#b4d241" class=""></path><path d="m50.738 12a7.994 7.994 0 0 1 -7.738 6h-5.74a7.495 7.495 0 0 0 -.26 2h8a8 8 0 0 0 8-8z" fill="#4DCC68" data-original="#a0be28" class=""></path><path d="m40 20-6 6v6h-4v-6l-6-6h3a8.1 8.1 0 0 0 -.06-.99l.06-.01 3 3v-11l-4-4h2a5.361 5.361 0 0 0 -.09-.99l.09-.01 4 3 4-3 .09.01a5.361 5.361 0 0 0 -.09.99h2l-4 4v11l3-3 .06.01a8.1 8.1 0 0 0 -.06.99z" fill="#966857" data-original="#966857" class=""></path><g fill="#8D5C4D"><path d="m34 24v2l6-6h-2z" fill="#8D5C4D" data-original="#8d5c4d"></path><path d="m34 11 4-4h-2l-2 2z" fill="#8D5C4D" data-original="#8d5c4d"></path><path d="m30 29h4v3h-4z" fill="#8D5C4D" data-original="#8d5c4d"></path><path d="m30 24-4-4h-2l6 6z" fill="#8D5C4D" data-original="#8d5c4d"></path></g><path d="m17 53v9 1h-8v-1-11-2h8z" fill="#CDEBFC" data-original="#cdebfc" class=""></path><path d="m11 61v-1-11h-2v2 11 1h8v-1-1z" fill="#BDE6FC" data-original="#bde6fc" class=""></path><path d="m1 51h8v11h-8z" fill="#5998BD" data-original="#5998bd" class=""></path><path d="m7 51v3a6 6 0 0 1 -6 6v2h8v-11z" fill="#4D8AAB" data-original="#4d8aab" class=""></path><path d="m35 55h6l1.29-1.29 8.71-8.71 4 4-13 13h-25v-9h3l1.44-1.44 2.56-2.56h11a3 3 0 0 1 0 6z" fill="#FFCDBE" data-original="#ffcdbe" class=""></path><path d="m21.44 53.56 2.56-2.56h11a2.963 2.963 0 0 1 2.816 2 2.991 2.991 0 0 0 -2.816-4h-11l-2.56 2.56-1.44 1.44h-3v2h3z" fill="#FAA68E" data-original="#faa68e" class=""></path><path d="m43 36h-22a14.6 14.6 0 0 1 22 0z" fill="#B2876D" data-original="#b2876d"></path><path d="m40.83 34h-17.66a12.986 12.986 0 0 0 -2.17 2h22a12.986 12.986 0 0 0 -2.17-2z" fill="#A37862" data-original="#a37862" class=""></path><path d="m45 36v4h-1-24-1v-4h2 22z" fill="#FFD2BF" data-original="#ffd2bf" class=""></path><path d="m22 38h-1v-2h-2v4h1 24 1v-2z" fill="#FFB89C" data-original="#ffb89c" class=""></path><path d="m38 52a3 3 0 0 0 -3-3h-11l-2.56 2.56-1.44-11.56h24l-1.71 13.71-1.29 1.29h-6a3 3 0 0 0 3-3z" fill="#FF7045" data-original="#ff7045" class=""></path><path d="m22 40h-2l1.44 11.56 1.778-1.778z" fill="#F05E3A" data-original="#f05e3a" class=""></path><path d="m40 52a3 3 0 0 0 -3-3h-2a3 3 0 0 1 0 6h2a3 3 0 0 0 3-3z" fill="#F05E3A" data-original="#f05e3a" class=""></path></g></g></svg>